<?xml version="1.0" encoding="UTF-8" standalone="no"?>
<svg
   id="Layer_2"
   data-name="Layer 2"
   width="42.23916"
   height="54.17521"
   viewBox="0 0 42.23916 54.17521"
   version="1.1"
   sodipodi:docname="arrow_left.svg"
   inkscape:version="1.4 (e7c3feb100, 2024-10-09)"
   xmlns:inkscape="http://www.inkscape.org/namespaces/inkscape"
   xmlns:sodipodi="http://sodipodi.sourceforge.net/DTD/sodipodi-0.dtd"
   xmlns="http://www.w3.org/2000/svg"
   xmlns:svg="http://www.w3.org/2000/svg">
  <defs
     id="defs2" />
  <sodipodi:namedview
     id="namedview2"
     pagecolor="#DBDBDB"
     bordercolor="#000000"
     borderopacity="0.25"
     inkscape:showpageshadow="2"
     inkscape:pageopacity="0.0"
     inkscape:pagecheckerboard="0"
     inkscape:deskcolor="#d1d1d1"
     inkscape:zoom="13.166366"
     inkscape:cx="18.494093"
     inkscape:cy="18.304216"
     inkscape:window-width="1908"
     inkscape:window-height="1034"
     inkscape:window-x="0"
     inkscape:window-y="0"
     inkscape:window-maximized="1"
     inkscape:current-layer="Layer_1-2" />
  <g
     id="Layer_1-2"
     data-name="Layer 1">
    <path
       d="m 26.900391,0 c -0.60415,-2.1277301e-4 -1.093963,0.48960044 -1.09375,1.09375 0,13.661622 -11.051259,24.712891 -24.712891,24.712891 -0.60414956,-2.13e-4 -1.09396277301,0.4896 -1.09375,1.09375 0.01133046,0.06388 0.0283246,0.12663 0.05078125,0.1875 C 0.0283246,27.14876 0.01133046,27.211508 0,27.275391 c -2.1277301e-4,0.604149 0.48960044,1.093962 1.09375,1.09375 13.661622,0 24.712891,11.051259 24.712891,24.71289 -2.13e-4,0.60415 0.4896,1.093963 1.09375,1.09375 0.604149,2.13e-4 1.093962,-0.4896 1.09375,-1.09375 0,-11.243886 -6.921308,-20.883768 -16.728516,-24.90039 h 30.972656 v -2.1875 H 11.265625 C 21.072834,21.977515 27.994141,12.337629 27.994141,1.09375 27.994353,0.48960044 27.50454,-2.1277301e-4 26.900391,0 Z"
       style="fill:#dcdcdc;stroke-linecap:round;stroke-linejoin:round"
       id="path3" />
  </g>
</svg>
